<svg width="22" height="22" viewBox="0 0 22 22" fill="none" xmlns="http://www.w3.org/2000/svg">
<path d="M0.75 7.41667H20.75M5.19444 0.75V2.97222M16.3056 0.75V2.97222M4.08333 11.8611H6.30556M4.08333 16.3056H6.30556M9.63889 11.8611H11.8611M9.63889 16.3056H11.8611M15.1944 11.8611H17.4167M15.1944 16.3056H17.4167M4.30556 20.75H17.1944C18.439 20.75 19.0613 20.75 19.5367 20.5078C19.9548 20.2948 20.2948 19.9548 20.5078 19.5367C20.75 19.0613 20.75 18.439 20.75 17.1944V6.52778C20.75 5.28321 20.75 4.66093 20.5078 4.18558C20.2948 3.76743 19.9548 3.42748 19.5367 3.21443C19.0613 2.97222 18.439 2.97222 17.1944 2.97222H4.30556C3.061 2.97222 2.43871 2.97222 1.96336 3.21443C1.54521 3.42748 1.20526 3.76743 0.992211 4.18558C0.75 4.66093 0.75 5.28321 0.75 6.52778V17.1944C0.75 18.439 0.75 19.0613 0.992211 19.5367C1.20526 19.9548 1.54521 20.2948 1.96336 20.5078C2.43871 20.75 3.06099 20.75 4.30556 20.75Z" stroke="#666666" stroke-width="1.5" stroke-linecap="round" stroke-linejoin="round"/>
</svg>
