<svg width="10" height="8" viewBox="0 0 10 8" fill="none" xmlns="http://www.w3.org/2000/svg">
<path d="M9.49971 0.499948L0.499713 0.499947C0.408592 0.500233 0.319275 0.525365 0.241375 0.572636C0.163475 0.619908 0.0999419 0.68753 0.057615 0.768223C0.015288 0.848917 -0.00423084 0.939627 0.00116123 1.03059C0.00655234 1.12155 0.0366493 1.20932 0.0882126 1.28445L4.58821 7.78445C4.77471 8.05395 5.22371 8.05395 5.41071 7.78445L9.91071 1.28445C9.9628 1.20948 9.99335 1.12166 9.99903 1.03055C10.0047 0.939437 9.98532 0.848509 9.94296 0.767644C9.90059 0.686779 9.83688 0.619071 9.75873 0.571876C9.68059 0.524681 9.591 0.499804 9.49971 0.499948Z" fill="#D4AF37"/>
</svg>
