<svg width="43" height="42" viewBox="0 0 43 42" fill="none" xmlns="http://www.w3.org/2000/svg">
<path d="M10.75 17.5H17.75" stroke="#D4AF37" stroke-width="2.5" stroke-linecap="round" stroke-linejoin="round"/>
<path d="M36.7083 19.25H32.1539C29.0314 19.25 26.5 21.6004 26.5 24.5C26.5 27.3996 29.0314 29.75 32.1539 29.75H36.7083C36.8542 29.75 36.927 29.75 36.9886 29.7463C37.9324 29.6888 38.684 28.9908 38.746 28.1144C38.75 28.0572 38.75 27.9895 38.75 27.8542V21.1458C38.75 21.0105 38.75 20.9428 38.746 20.8855C38.684 20.0091 37.9324 19.3112 36.9886 19.2537C36.927 19.25 36.8542 19.25 36.7083 19.25Z" stroke="#D4AF37" stroke-width="2.5"/>
<path d="M36.9387 19.25C36.8028 15.9735 36.364 13.9646 34.9497 12.5502C32.8996 10.5 29.5996 10.5 23 10.5H17.75C11.1503 10.5 7.85051 10.5 5.80025 12.5502C3.75 14.6005 3.75 17.9004 3.75 24.5C3.75 31.0996 3.75 34.3996 5.80025 36.4497C7.85051 38.5 11.1503 38.5 17.75 38.5H23C29.5996 38.5 32.8996 38.5 34.9497 36.4497C36.364 35.0355 36.8028 33.0265 36.9387 29.75" stroke="#D4AF37" stroke-width="2.5"/>
<path d="M10.75 10.5L17.2871 6.16548C19.1279 4.94484 21.622 4.94484 23.4629 6.16548L30 10.5" stroke="#D4AF37" stroke-width="2.5" stroke-linecap="round"/>
<path d="M31.7344 24.5H31.7501" stroke="#D4AF37" stroke-width="2.5" stroke-linecap="round" stroke-linejoin="round"/>
</svg>
