<svg width="18" height="18" viewBox="0 0 18 18" fill="none" xmlns="http://www.w3.org/2000/svg">
<path d="M9.94906 0.907242C10.0024 0.577558 10.3142 0.353917 10.644 0.407286C10.6644 0.411196 10.7301 0.423468 10.7645 0.431128C10.8333 0.446447 10.9293 0.470039 11.049 0.504895C11.2884 0.574591 11.6227 0.689407 12.0241 0.873354C12.8276 1.24164 13.8969 1.88586 15.0065 2.99516C16.1161 4.10445 16.7605 5.17344 17.1289 5.97673C17.3129 6.37796 17.4277 6.71225 17.4974 6.95154C17.5323 7.0712 17.5559 7.16716 17.5712 7.23596C17.5789 7.27037 17.5845 7.29799 17.5884 7.3184L17.593 7.34356C17.6464 7.67322 17.4247 7.99775 17.0949 8.05113C16.7661 8.10434 16.4563 7.8818 16.4017 7.55364C16.4 7.54486 16.3954 7.52123 16.3904 7.4989C16.3805 7.45423 16.3632 7.3834 16.3359 7.28975C16.2813 7.10243 16.1866 6.82398 16.0291 6.48077C15.7148 5.79517 15.1494 4.84843 14.151 3.85036C13.1527 2.85228 12.2057 2.28707 11.5199 1.97276C11.1766 1.81541 10.8981 1.72064 10.7107 1.66608C10.617 1.6388 10.4993 1.61178 10.4546 1.60183C10.1263 1.54715 9.89583 1.23598 9.94906 0.907242Z" fill="#666666"/>
<path fill-rule="evenodd" clip-rule="evenodd" d="M9.96662 3.55181C10.0653 3.20654 10.4251 3.00661 10.7703 3.10526L10.5917 3.73044C10.7703 3.10526 10.7703 3.10526 10.7703 3.10526L10.7716 3.10563L10.7729 3.10601L10.7759 3.10685L10.7826 3.10886L10.7997 3.1142C10.8128 3.11838 10.8291 3.12382 10.8486 3.13073C10.8875 3.14454 10.9389 3.16419 11.0021 3.19124C11.1284 3.24537 11.301 3.32896 11.5129 3.45441C11.9373 3.70554 12.5165 4.12269 13.197 4.80319C13.8775 5.4837 14.2947 6.06296 14.5457 6.48729C14.6713 6.69926 14.7548 6.87183 14.8089 6.99813C14.836 7.06124 14.8557 7.1127 14.8695 7.15164C14.8764 7.1711 14.8819 7.18742 14.886 7.2005L14.8913 7.21765L14.8934 7.22437L14.8942 7.22726L14.8946 7.22859C14.8946 7.22859 14.8949 7.22984 14.2697 7.40846L14.8949 7.22983C14.9936 7.57511 14.7937 7.93497 14.4484 8.03362C14.1061 8.13141 13.7493 7.93575 13.6472 7.59585L13.644 7.5865C13.6393 7.57347 13.6298 7.54783 13.6137 7.51037C13.5817 7.43553 13.5235 7.31309 13.4267 7.1496C13.2334 6.82299 12.8843 6.3295 12.2776 5.7227C11.6707 5.1159 11.1772 4.76678 10.8506 4.57349C10.6871 4.47673 10.5647 4.41856 10.4898 4.38648C10.4523 4.37043 10.4268 4.36086 10.4137 4.35624L10.4044 4.35303C10.0645 4.25085 9.86874 3.89416 9.96662 3.55181Z" fill="#666666"/>
<path fill-rule="evenodd" clip-rule="evenodd" d="M3.32162 2.8663C4.68214 1.50578 6.97803 1.60921 7.92536 3.30664L8.45092 4.24838C9.06953 5.35685 8.80594 6.75543 7.90034 7.67214C7.88828 7.68866 7.8243 7.7817 7.81637 7.94431C7.80624 8.15186 7.87993 8.63191 8.62365 9.37562C9.36713 10.1192 9.8471 10.193 10.0548 10.1829C10.2176 10.1751 10.3107 10.1111 10.3272 10.099C11.2439 9.19342 12.6425 8.92975 13.751 9.54844L14.6927 10.074C16.3901 11.0213 16.4935 13.3171 15.1331 14.6777C14.4053 15.4055 13.4377 16.0521 12.3005 16.0952C10.6154 16.159 7.81734 15.7239 5.04641 12.9529C2.27545 10.1819 1.84028 7.38392 1.90416 5.69879C1.94727 4.56167 2.59389 3.59403 3.32162 2.8663ZM6.86465 3.8986C6.37956 3.02942 5.07604 2.82972 4.18054 3.72522C3.55266 4.35309 3.14448 5.04613 3.11799 5.7448C3.06471 7.15008 3.41166 9.60034 5.90533 12.094C8.39901 14.5876 10.8492 14.9346 12.2545 14.8814C12.9532 14.8549 13.6463 14.4467 14.2741 13.8187C15.1696 12.9233 14.9699 11.6197 14.1007 11.1347L13.159 10.6091C12.5732 10.2822 11.7503 10.3937 11.1727 10.9713C11.116 11.028 10.7547 11.3651 10.1138 11.3962C9.45766 11.4281 8.66349 11.1333 7.76478 10.2346C6.8657 9.33554 6.571 8.54113 6.60313 7.88495C6.63451 7.24395 6.97157 6.88309 7.02796 6.82669C7.60557 6.24905 7.71716 5.42616 7.39025 4.84034L6.86465 3.8986Z" fill="#666666"/>
</svg>
