<svg width="28" height="25" viewBox="0 0 28 25" fill="none" xmlns="http://www.w3.org/2000/svg">
<g clip-path="url(#clip0_1908_19946)">
<path d="M1.47734 17.0698C1.52328 17.3313 1.8974 17.6647 2.1862 17.6517H12.6222C13.377 17.8086 13.5148 18.7108 12.8191 19.0638L2.06806 19.1226C0.965383 19.018 0.118688 18.1681 0.0136719 17.0698V1.99399C0.138379 0.974111 0.880057 0.202667 1.89084 0.019613L23.4914 0C24.6006 0.0980648 25.4342 0.961036 25.5458 2.05282V13.2584C29.1295 16.1284 28.7094 21.7835 24.7253 24.0978C21.0038 26.2618 16.1731 24.3593 14.9982 20.2406C13.4492 14.7882 18.9035 10.1203 24.069 12.3235V8.83237H1.47734V17.0764V17.0698ZM24.0756 3.92259V2.05282C24.0756 1.81747 23.5833 1.4056 23.3076 1.47097H2.30434C2.01555 1.38598 1.47734 1.79786 1.47734 2.05282V3.92259H24.0756ZM24.0756 5.39357H1.47734V7.35486H24.0756V5.39357ZM26.5303 18.3904C26.5303 15.5465 24.22 13.2453 21.3714 13.2453C18.5228 13.2453 16.2125 15.5531 16.2125 18.3904C16.2125 21.2278 18.5228 23.5356 21.3714 23.5356C24.22 23.5356 26.5303 21.2278 26.5303 18.3904Z" fill="#D4AF37"/>
<path d="M3.55151 10.8066H8.69075C9.54401 10.9309 9.55057 12.1338 8.69075 12.258C7.16801 12.4737 5.17926 12.1142 3.60402 12.258C2.77045 12.088 2.73107 11.0355 3.55151 10.8066Z" fill="#D4AF37"/>
<path d="M3.55124 13.2581C3.86629 13.1993 5.62531 13.1993 5.89442 13.2843C6.6164 13.5065 6.53108 14.5983 5.74346 14.7095C5.40872 14.7552 3.73502 14.7618 3.45278 14.6768C2.74392 14.4545 2.82269 13.3954 3.55124 13.2581Z" fill="#D4AF37"/>
<path d="M18.7789 15.2132C18.9824 15.1805 19.1465 15.2132 19.3171 15.3244L21.3518 17.3445L23.4653 15.2982C24.1085 14.9387 24.8305 15.6578 24.4695 16.2985L22.4217 18.3644L24.4695 20.476C24.8305 21.1167 24.1085 21.8424 23.4653 21.4763L21.3978 19.43L19.2843 21.4763C18.6411 21.8359 17.9191 21.1167 18.2801 20.476L20.3279 18.4101L18.2604 16.2593C18.0373 15.8474 18.3392 15.2851 18.7855 15.2132H18.7789Z" fill="#D4AF37"/>
</g>
<defs>
<clipPath id="clip0_1908_19946">
<rect width="28" height="25" fill="white"/>
</clipPath>
</defs>
</svg>
