<svg width="24" height="24" viewBox="0 0 24 24" fill="none" xmlns="http://www.w3.org/2000/svg">
<g clip-path="url(#clip0_559_2317)">
<path d="M6.29403 0C7.13966 0.1825 6.70716 1.84125 6.95903 1.87812L11.1322 1.87563C11.1409 1.11375 10.9059 0.42125 11.6897 0H12.434C12.914 0.569375 13.0865 1.12 12.9915 1.87625L16.9797 1.88188L17.6434 0H18.5734C19.0034 0.546875 19.1822 1.17562 19.1322 1.87437C21.4403 1.61312 23.3059 2.56312 23.9684 4.875V15.9375C23.6372 16.635 22.4003 16.7219 22.1897 15.9544L22.0959 5.35625C21.8078 3.82062 20.4903 3.61875 19.1328 3.75187C19.2747 6.2975 16.9409 6.29688 17.084 3.75187L12.9909 3.75C13.1615 4.99563 12.4678 6.26875 11.2228 5.25313L11.1328 3.75062H6.85216L6.76216 5.25313C5.51403 6.24625 4.75216 5.02688 4.99403 3.75C3.34278 3.62687 2.18153 3.87687 2.00716 5.71C1.56653 10.3294 2.35903 15.6525 2.01216 20.3487C2.16591 21.5319 2.80966 22.0244 3.96028 22.135C9.13528 22.6325 15.0872 21.74 20.3465 22.13C22.7315 22.2387 21.5234 17.7588 23.9703 19.8756V21.0006C23.4865 22.5731 22.5547 23.5131 20.9934 24.0006H3.13153C1.54091 23.4862 0.383409 22.4425 0.175284 20.6987C0.496534 15.7913 -0.327841 10.1694 0.156534 5.34688C0.419659 2.7325 2.54466 1.6 4.99278 1.87625C4.90403 1.06438 4.97153 0.573125 5.55028 0H6.29466H6.29403Z" fill="black"/>
<path d="M7.78223 12.2813L8.24785 11.9925C9.33098 13.0331 10.0122 13.0544 11.5022 12.9363C11.7691 12.6944 9.09473 9.2475 10.8229 9.22188C11.3204 9.21438 13.3179 12.2181 13.8154 12.7631C14.4272 13.215 16.3672 12.5106 16.486 13.81C16.6129 15.2013 14.3804 14.5688 13.8154 14.9863C13.3179 15.5313 11.3204 18.535 10.8229 18.5275C9.09473 18.5019 11.7691 15.055 11.5022 14.8131C10.0122 14.6956 9.33098 14.7163 8.24785 15.7569L7.78223 15.4681V12.2806V12.2813Z" fill="black"/>
</g>
<defs>
<clipPath id="clip0_559_2317">
<rect width="23.9688" height="24" fill="white"/>
</clipPath>
</defs>
</svg>
