<svg width="21" height="18" viewBox="0 0 21 18" fill="none" xmlns="http://www.w3.org/2000/svg">
<path d="M18.2891 0.585942C17.999 0.612309 17.7178 0.69727 17.4453 0.843754L13.9062 2.71875L9.125 1.54688L8.84375 1.47657L8.5625 1.61719L6.94531 2.55469L5.98438 3.11719L6.875 3.79688L8.91406 5.34375L6.35938 6.70313L3.61719 5.46094L3.28906 5.32032L2.96094 5.48438L1.64844 6.1875L0.78125 6.65626L1.4375 7.35938L5.49219 11.7188L5.86719 12.1641L6.38281 11.8828L10.25 9.82032L9.47656 14.0859L9.21875 15.4453L10.5078 14.9063L12.4297 14.0859L12.7109 13.9688L12.8281 13.6875L15.6172 6.91407L19.5547 4.80469C20.6387 4.22168 21.0752 2.8418 20.4922 1.75782C20.2021 1.21582 19.707 0.846684 19.1562 0.679692C18.8809 0.597661 18.5791 0.559575 18.2891 0.585942ZM18.4297 2.08594C18.5234 2.08008 18.6201 2.08301 18.7109 2.10938C18.8926 2.16504 19.0566 2.27637 19.1562 2.46094C19.3555 2.83301 19.2236 3.26954 18.8516 3.46875L14.6562 5.74219L14.4219 5.85938L14.3281 6.11719L11.5391 12.8203L11.2109 12.9609L12.0078 8.53126L12.2891 7.00782L10.9297 7.73438L6.19531 10.2891L3.21875 7.05469L3.33594 6.98438L6.07812 8.20313L6.42969 8.36719L6.73438 8.17969L18.1484 2.15625C18.2422 2.10645 18.3359 2.0918 18.4297 2.08594ZM9.03125 3.07032L11.9141 3.77344L10.3672 4.57032L8.67969 3.28125L9.03125 3.07032ZM1.25 16.5V18H20.75V16.5H1.25Z" fill="black"/>
</svg>
