<svg width="24" height="25" viewBox="0 0 24 25" fill="none" xmlns="http://www.w3.org/2000/svg">
<path d="M15.5 9.49994L15.6716 9.67151C17.0049 11.0048 17.6716 11.6715 17.6716 12.4999C17.6716 13.3283 17.0049 13.995 15.6716 15.3283L15.5 15.4999" stroke="#878787" stroke-width="1.5" stroke-linecap="round"/>
<path d="M13.2943 7.67035L12.0002 12.4999L10.7061 17.3296" stroke="#878787" stroke-width="1.5" stroke-linecap="round"/>
<path d="M8.50018 9.49994L8.32861 9.67151C6.99528 11.0048 6.32861 11.6715 6.32861 12.4999C6.32861 13.3283 6.99528 13.995 8.32861 15.3283L8.50018 15.4999" stroke="#878787" stroke-width="1.5" stroke-linecap="round"/>
<path d="M7 3.83776C8.47087 2.98691 10.1786 2.49994 12 2.49994C17.5228 2.49994 22 6.97709 22 12.4999C22 18.0227 17.5228 22.4999 12 22.4999C6.47715 22.4999 2 18.0227 2 12.4999C2 10.6785 2.48697 8.97081 3.33782 7.49994" stroke="#878787" stroke-width="1.5" stroke-linecap="round"/>
</svg>
