<svg width="66" height="76" viewBox="0 0 66 76" fill="none" xmlns="http://www.w3.org/2000/svg">
<g clip-path="url(#clip0_557_492)">
<path d="M35.3162 0C40.3817 2.35323 42.4689 6.24427 41.7976 11.877C45.4333 12.4272 62.8933 10.8379 64.6497 12.6093C65.1904 13.3495 65.2854 14.2441 65.3785 15.1307C66.3072 23.8866 66.0914 41.8336 65.4003 50.7874C64.3804 63.9845 55.1069 73.6052 42.3897 76H2.30728L0.790401 74.2722C1.52508 55.4444 -1.04926 34.3247 0.515145 15.7086C0.752776 12.8765 0.820105 12.1917 3.77069 11.875C10.1531 11.1882 17.6166 12.3817 24.1198 11.877C23.4485 6.24031 25.5377 2.35125 30.6012 0H35.3162ZM35.1756 6.67771C32.1557 3.62583 28.6803 8.40156 30.0071 11.879H35.9083C35.8707 10.4817 36.1736 7.68708 35.1756 6.67771ZM24.1159 17.8125H6.43215V70.0625H39.7381C43.7362 70.0625 40.4569 55.7155 42.5303 52.9843C44.7977 50.7003 59.4852 54.3618 59.4852 50.1719V17.8125H30.0111C30.0645 19.2672 29.7477 21.5155 30.5497 22.7644C31.5992 24.3972 38.3321 23.1028 35.1716 28.9513C28.1912 31.726 22.9198 24.4724 24.1159 17.8125ZM57.1268 58.1875H47.6948V67.6875C50.1543 68.3149 58.3208 59.2404 57.1268 58.1875Z" fill="#D4AF37"/>
<path d="M53.5541 35.0055H12.3628V40.9945H53.5541V35.0055Z" fill="#D4AF37"/>
<path d="M35.1715 47.6405C36.1477 48.6182 36.1042 51.5375 34.922 52.2955C33.3972 53.2733 14.1471 53.1961 13.0619 52.1075C12.151 51.1951 12.1411 48.5648 13.0619 47.6405C14.2124 46.4867 33.9992 46.4649 35.1735 47.6405H35.1715Z" fill="#D4AF37"/>
</g>
<defs>
<clipPath id="clip0_557_492">
<rect width="66" height="76" fill="white"/>
</clipPath>
</defs>
</svg>
