<svg width="18" height="12" viewBox="0 0 18 12" fill="none" xmlns="http://www.w3.org/2000/svg">
<path fill-rule="evenodd" clip-rule="evenodd" d="M8.99943 0.375C6.68756 0.375 4.66351 1.75934 3.27269 3.04027C2.56611 3.69102 1.99623 4.33983 1.60303 4.8255C1.40605 5.06875 1.25241 5.27233 1.14715 5.41642C1.09449 5.4885 1.05386 5.54575 1.02591 5.58575C1.01192 5.60575 1.0011 5.62142 0.993515 5.6325L0.984573 5.64558L0.98194 5.6495L0.753906 6.011L0.98109 6.34925L0.98194 6.3505L0.984573 6.35442L0.993515 6.3675C1.0011 6.37858 1.01192 6.39425 1.02591 6.41425C1.05386 6.45425 1.09449 6.5115 1.14715 6.58358C1.25241 6.72767 1.40605 6.93125 1.60303 7.1745C1.99623 7.66017 2.56611 8.309 3.27269 8.95975C4.66351 10.2407 6.68756 11.625 8.99943 11.625C11.3113 11.625 13.3353 10.2407 14.7261 8.95975C15.4327 8.309 16.0026 7.66017 16.3958 7.1745C16.5928 6.93125 16.7463 6.72767 16.8517 6.58358C16.9043 6.5115 16.9449 6.45425 16.9728 6.41425C16.9868 6.39425 16.9977 6.37858 17.0053 6.3675L17.0142 6.35442L17.0168 6.3505L17.018 6.34883L17.2523 6L17.0177 5.65075L17.0168 5.6495L17.0142 5.64558L17.0053 5.6325C16.9977 5.62142 16.9868 5.60575 16.9728 5.58575C16.9449 5.54575 16.9043 5.4885 16.8517 5.41642C16.7463 5.27233 16.5928 5.06875 16.3958 4.8255C16.0026 4.33983 15.4327 3.69102 14.7261 3.04027C13.3353 1.75934 11.3113 0.375 8.99943 0.375ZM2.57453 6.388C2.45505 6.24042 2.35333 6.10925 2.27081 6C2.35333 5.89075 2.45505 5.75958 2.57453 5.612C2.94038 5.16017 3.46884 4.559 4.11951 3.95973C5.44315 2.74066 7.16909 1.625 8.99943 1.625C10.8297 1.625 12.5557 2.74066 13.8793 3.95973C14.5299 4.559 15.0584 5.16017 15.4243 5.612C15.5438 5.75958 15.6454 5.89075 15.728 6C15.6454 6.10925 15.5438 6.24042 15.4243 6.388C15.0584 6.83983 14.5299 7.441 13.8793 8.04025C12.5557 9.25933 10.8297 10.375 8.99943 10.375C7.16909 10.375 5.44315 9.25933 4.11951 8.04025C3.46884 7.441 2.94038 6.83983 2.57453 6.388ZM10.8743 6C10.8743 7.0355 10.0349 7.875 8.99935 7.875C7.96385 7.875 7.12439 7.0355 7.12439 6C7.12439 4.9645 7.96385 4.125 8.99935 4.125C10.0349 4.125 10.8743 4.9645 10.8743 6ZM12.1243 6C12.1243 7.72592 10.7253 9.125 8.99935 9.125C7.2735 9.125 5.87439 7.72592 5.87439 6C5.87439 4.27411 7.2735 2.875 8.99935 2.875C10.7253 2.875 12.1243 4.27411 12.1243 6Z" fill="black"/>
</svg>
