<svg width="21" height="21" viewBox="0 0 21 21" fill="none" xmlns="http://www.w3.org/2000/svg">
<path fill-rule="evenodd" clip-rule="evenodd" d="M5.5013 2.16668C5.5013 1.70644 5.8744 1.33334 6.33463 1.33334C6.79487 1.33334 7.16797 1.70644 7.16797 2.16668V3.00001H13.8346V2.16668C13.8346 1.70644 14.2077 1.33334 14.668 1.33334C15.1282 1.33334 15.5013 1.70644 15.5013 2.16668V3.00001H16.3346C17.7154 3.00001 18.8346 4.1193 18.8346 5.50001V17.1667C18.8346 18.5474 17.7154 19.6667 16.3346 19.6667H4.66797C3.28726 19.6667 2.16797 18.5474 2.16797 17.1667V5.50001C2.16797 4.1193 3.28726 3.00001 4.66797 3.00001H5.5013V2.16668ZM13.8346 4.66668V5.50001C13.8346 5.96024 14.2077 6.33334 14.668 6.33334C15.1282 6.33334 15.5013 5.96024 15.5013 5.50001V4.66668H16.3346C16.7949 4.66668 17.168 5.03978 17.168 5.50001V8.00001H3.83464V5.50001C3.83464 5.03978 4.20774 4.66668 4.66797 4.66668H5.5013V5.50001C5.5013 5.96024 5.8744 6.33334 6.33463 6.33334C6.79487 6.33334 7.16797 5.96024 7.16797 5.50001V4.66668H13.8346ZM3.83464 9.66668V17.1667C3.83464 17.6269 4.20774 18 4.66797 18H16.3346C16.7949 18 17.168 17.6269 17.168 17.1667V9.66668H3.83464Z" fill="white"/>
</svg>
