<svg width="31" height="31" viewBox="0 0 31 31" fill="none" xmlns="http://www.w3.org/2000/svg">
<path d="M24.915 4.63184C24.5404 4.6659 24.1771 4.77564 23.8252 4.96485L19.2539 7.38673L13.0781 5.87305L12.7148 5.78223L12.3516 5.96387L10.2627 7.17481L9.02148 7.90137L10.1719 8.7793L12.8057 10.7774L9.50586 12.5332L5.96387 10.9287L5.54004 10.7471L5.11621 10.959L3.4209 11.8672L2.30078 12.4727L3.14844 13.3809L8.38574 19.0117L8.87012 19.5869L9.53613 19.2236L14.5312 16.5596L13.5322 22.0693L13.1992 23.8252L14.8643 23.1289L17.3467 22.0693L17.71 21.918L17.8613 21.5547L21.4639 12.8057L26.5498 10.0811C27.95 9.32801 28.5138 7.54566 27.7607 6.14551C27.3861 5.44544 26.7466 4.96863 26.0352 4.75294C25.6794 4.64698 25.2897 4.59779 24.915 4.63184ZM25.0967 6.56934C25.2178 6.56178 25.3427 6.56556 25.46 6.59962C25.6946 6.67152 25.9065 6.81531 26.0352 7.05372C26.2925 7.53431 26.1222 8.09815 25.6416 8.35548L20.2227 11.292L19.9199 11.4434L19.7988 11.7764L16.1963 20.4346L15.7725 20.6162L16.8018 14.8945L17.165 12.9268L15.4092 13.8652L9.29395 17.165L5.44922 12.9873L5.60059 12.8965L9.14258 14.4707L9.59668 14.6826L9.99023 14.4404L24.7334 6.66016C24.8545 6.59583 24.9756 6.57691 25.0967 6.56934ZM12.957 7.84083L16.6807 8.74903L14.6826 9.77833L12.5029 8.11329L12.957 7.84083ZM2.90625 25.1875V27.125H28.0938V25.1875H2.90625Z" fill="black"/>
</svg>
