<svg width="12" height="12" viewBox="0 0 12 12" fill="none" xmlns="http://www.w3.org/2000/svg">
<g clip-path="url(#clip0_2101_1136)">
<path fill-rule="evenodd" clip-rule="evenodd" d="M3.0912 10.3939L2.24399 9.50557C2.06279 9.31404 2.1984 9.00548 2.4618 9.00548H11.4C11.7312 9.00548 12 8.72987 12 8.39845V8.40225C12 8.07023 11.7312 7.80489 11.4 7.80489H2.47081C2.20621 7.80489 2.0712 7.47989 2.2548 7.28956L3.09719 6.41358C3.32519 6.17402 3.31501 5.79265 3.0732 5.5669L3.072 5.56456C2.8332 5.34061 2.45879 5.35198 2.23379 5.59034L0.327594 7.59454C-0.111006 8.05866 -0.108595 8.78515 0.331805 9.24747L2.2212 11.2156C2.4456 11.451 2.81701 11.4624 3.05521 11.2408L3.06119 11.235C3.30239 11.011 3.3156 10.634 3.0912 10.3939ZM8.9388 0.764854L8.94479 0.758994C9.18299 0.537444 9.5544 0.548828 9.7788 0.78419L11.6682 2.75235C12.1092 3.21467 12.111 3.94115 11.673 4.40587L9.7662 6.41007C9.5418 6.64783 9.16741 6.65978 8.92861 6.43643L8.92679 6.43468C8.68499 6.20892 8.67479 5.82872 8.90339 5.58976L9.7452 4.71436C9.9288 4.52343 9.79379 4.20226 9.52919 4.20226H0.6C0.2688 4.20226 0 3.93692 0 3.60489V3.60372C0 3.2723 0.2688 3.00138 0.6 3.00138H9.5382C9.8016 3.00138 9.9372 2.6893 9.756 2.49776L8.90879 1.60421C8.68439 1.36405 8.69761 0.98881 8.9388 0.764854Z" fill="black"/>
</g>
<defs>
<clipPath id="clip0_2101_1136">
<rect width="12" height="12" fill="white"/>
</clipPath>
</defs>
</svg>
