<svg width="29" height="29" viewBox="0 0 29 29" fill="none" xmlns="http://www.w3.org/2000/svg">
<path d="M27.1875 13.7567V9.96858C27.1875 9.24752 26.9011 8.556 26.3912 8.04613C25.8813 7.53627 25.1898 7.24983 24.4688 7.24983H23.1094L17.9437 0.362332C17.8011 0.171245 17.5888 0.0441044 17.353 0.00847868C17.1172 -0.0271471 16.8768 0.0316136 16.6841 0.17202L12.0984 3.51608C11.3502 2.72848 10.3832 2.18305 9.32215 1.95011C8.26107 1.71717 7.15454 1.80741 6.14522 2.20919C5.1359 2.61097 4.27006 3.30587 3.65934 4.20429C3.04862 5.10272 2.72101 6.16349 2.71875 7.24983C1.99769 7.24983 1.30617 7.53627 0.796303 8.04613C0.286439 8.556 0 9.24752 0 9.96858L0 26.2811C0 27.0021 0.286439 27.6937 0.796303 28.2035C1.30617 28.7134 1.99769 28.9998 2.71875 28.9998H24.4688C25.1898 28.9998 25.8813 28.7134 26.3912 28.2035C26.9011 27.6937 27.1875 27.0021 27.1875 26.2811V22.493C27.7163 22.306 28.1744 21.96 28.4989 21.5025C28.8234 21.045 28.9984 20.4983 29 19.9373V16.3123C28.9984 15.7514 28.8234 15.2047 28.4989 14.7472C28.1744 14.2896 27.7163 13.9437 27.1875 13.7567ZM17.0284 2.16577L20.8438 7.24983H10.0413L17.0284 2.16577ZM8.15625 3.62483C9.06647 3.62535 9.94318 3.96827 10.6122 4.58546L6.95094 7.24983H4.53125C4.53125 6.28842 4.91317 5.36639 5.59299 4.68657C6.27281 4.00675 7.19484 3.62483 8.15625 3.62483ZM24.4688 27.1873H2.71875C2.4784 27.1873 2.24789 27.0919 2.07793 26.9219C1.90798 26.7519 1.8125 26.5214 1.8125 26.2811V9.96858C1.8125 9.72823 1.90798 9.49772 2.07793 9.32777C2.24789 9.15781 2.4784 9.06233 2.71875 9.06233H24.4688C24.7091 9.06233 24.9396 9.15781 25.1096 9.32777C25.2795 9.49772 25.375 9.72823 25.375 9.96858V13.5936H22.6562C21.4545 13.5936 20.3019 14.071 19.4522 14.9208C18.6024 15.7705 18.125 16.9231 18.125 18.1248C18.125 19.3266 18.6024 20.4791 19.4522 21.3289C20.3019 22.1787 21.4545 22.6561 22.6562 22.6561H25.375V26.2811C25.375 26.5214 25.2795 26.7519 25.1096 26.9219C24.9396 27.0919 24.7091 27.1873 24.4688 27.1873ZM27.1875 19.9373C27.1875 20.1777 27.092 20.4082 26.9221 20.5781C26.7521 20.7481 26.5216 20.8436 26.2812 20.8436H22.6562C21.9352 20.8436 21.2437 20.5571 20.7338 20.0473C20.2239 19.5374 19.9375 18.8459 19.9375 18.1248C19.9375 17.4038 20.2239 16.7122 20.7338 16.2024C21.2437 15.6925 21.9352 15.4061 22.6562 15.4061H26.2812C26.5216 15.4061 26.7521 15.5016 26.9221 15.6715C27.092 15.8415 27.1875 16.072 27.1875 16.3123V19.9373Z" fill="#D4AF37"/>
<path d="M22.6563 17.2188C22.477 17.2188 22.3018 17.2719 22.1528 17.3715C22.0037 17.4711 21.8876 17.6126 21.819 17.7782C21.7504 17.9438 21.7324 18.126 21.7674 18.3018C21.8024 18.4776 21.8887 18.6391 22.0154 18.7658C22.1422 18.8926 22.3037 18.9789 22.4794 19.0138C22.6552 19.0488 22.8375 19.0309 23.0031 18.9623C23.1687 18.8937 23.3102 18.7775 23.4098 18.6285C23.5094 18.4795 23.5625 18.3042 23.5625 18.125C23.5625 17.8846 23.467 17.6541 23.2971 17.4842C23.1271 17.3142 22.8966 17.2188 22.6563 17.2188Z" fill="#D4AF37"/>
<path d="M4.53125 10.875C4.2909 10.875 4.06039 10.9705 3.89043 11.1404C3.72048 11.3104 3.625 11.5409 3.625 11.7812V13.5938C3.625 13.8341 3.72048 14.0646 3.89043 14.2346C4.06039 14.4045 4.2909 14.5 4.53125 14.5C4.7716 14.5 5.00211 14.4045 5.17207 14.2346C5.34202 14.0646 5.4375 13.8341 5.4375 13.5938V11.7812C5.4375 11.5409 5.34202 11.3104 5.17207 11.1404C5.00211 10.9705 4.7716 10.875 4.53125 10.875Z" fill="#D4AF37"/>
<path d="M4.53125 16.3125C4.2909 16.3125 4.06039 16.408 3.89043 16.5779C3.72048 16.7479 3.625 16.9784 3.625 17.2188V19.0312C3.625 19.2716 3.72048 19.5021 3.89043 19.6721C4.06039 19.842 4.2909 19.9375 4.53125 19.9375C4.7716 19.9375 5.00211 19.842 5.17207 19.6721C5.34202 19.5021 5.4375 19.2716 5.4375 19.0312V17.2188C5.4375 16.9784 5.34202 16.7479 5.17207 16.5779C5.00211 16.408 4.7716 16.3125 4.53125 16.3125Z" fill="#D4AF37"/>
<path d="M4.53125 21.75C4.2909 21.75 4.06039 21.8455 3.89043 22.0154C3.72048 22.1854 3.625 22.4159 3.625 22.6562V24.4688C3.625 24.7091 3.72048 24.9396 3.89043 25.1096C4.06039 25.2795 4.2909 25.375 4.53125 25.375C4.7716 25.375 5.00211 25.2795 5.17207 25.1096C5.34202 24.9396 5.4375 24.7091 5.4375 24.4688V22.6562C5.4375 22.4159 5.34202 22.1854 5.17207 22.0154C5.00211 21.8455 4.7716 21.75 4.53125 21.75Z" fill="#D4AF37"/>
</svg>
